<svg width="85" height="30" viewBox="0 0 85 30" fill="none" xmlns="http://www.w3.org/2000/svg">
<path d="M3.66 7.14C3.66 7.908 3.508 8.564 3.204 9.108C2.9 9.652 2.476 10.068 1.932 10.356C1.396 10.652 0.772 10.812 0.06 10.836V9.144C0.604 9.112 1.048 8.944 1.392 8.64C1.736 8.336 1.908 7.824 1.908 7.104V0.167999H3.66V7.14ZM13.1087 8.112C13.0047 8.224 12.8407 8.34 12.6167 8.46C12.3927 8.572 12.1327 8.676 11.8367 8.772C11.5487 8.868 11.2527 8.944 10.9487 9C10.6447 9.064 10.3567 9.096 10.0847 9.096C9.13269 9.096 8.30469 8.912 7.60069 8.544C6.89669 8.176 6.35269 7.672 5.96869 7.032C5.59269 6.392 5.40469 5.66 5.40469 4.836C5.40469 4.028 5.52469 3.328 5.76469 2.736C6.01269 2.136 6.34469 1.64 6.76069 1.248C7.18469 0.848 7.66869 0.552 8.21269 0.36C8.76469 0.168 9.34069 0.0719998 9.94069 0.0719998C10.5087 0.0719998 11.0287 0.136 11.5007 0.263999C11.9727 0.383999 12.3727 0.535999 12.7007 0.719999L12.1367 2.34C11.9927 2.26 11.8007 2.18 11.5607 2.1C11.3207 2.02 11.0767 1.956 10.8287 1.908C10.5807 1.852 10.3607 1.824 10.1687 1.824C9.53669 1.824 8.99669 1.932 8.54869 2.148C8.10869 2.356 7.77269 2.672 7.54069 3.096C7.31669 3.52 7.20469 4.048 7.20469 4.68C7.20469 5.232 7.32869 5.708 7.57669 6.108C7.82469 6.508 8.16869 6.816 8.60869 7.032C9.05669 7.248 9.56469 7.356 10.1327 7.356C10.3807 7.356 10.6087 7.34 10.8167 7.308C11.0247 7.268 11.2007 7.208 11.3447 7.128V6.06H9.82069V4.38H13.1087V8.112ZM17.7613 0.167999C18.5053 0.167999 19.1333 0.291999 19.6453 0.539999C20.1573 0.78 20.5453 1.124 20.8093 1.572C21.0813 2.012 21.2173 2.536 21.2173 3.144C21.2173 3.504 21.1613 3.864 21.0493 4.224C20.9453 4.584 20.7693 4.912 20.5213 5.208C20.2813 5.504 19.9613 5.744 19.5613 5.928C19.1613 6.104 18.6653 6.192 18.0733 6.192H16.8253V9H15.0853V0.167999H17.7613ZM18.0613 4.512C18.4133 4.512 18.6853 4.44 18.8773 4.296C19.0773 4.144 19.2173 3.968 19.2973 3.768C19.3773 3.56 19.4173 3.372 19.4173 3.204C19.4173 3.108 19.4013 2.988 19.3693 2.844C19.3453 2.692 19.2893 2.54 19.2013 2.388C19.1133 2.236 18.9773 2.108 18.7933 2.004C18.6173 1.9 18.3773 1.848 18.0733 1.848H16.8253V4.512H18.0613ZM19.6933 5.592L21.8773 9H19.8493L17.6173 5.64L19.6933 5.592ZM3.732 18.168C4.652 18.168 5.384 18.356 5.928 18.732C6.472 19.1 6.744 19.652 6.744 20.388C6.744 20.932 6.608 21.388 6.336 21.756C6.072 22.116 5.708 22.388 5.244 22.572C4.788 22.748 4.264 22.836 3.672 22.836L3.396 21.9C4.124 21.9 4.768 22 5.328 22.2C5.896 22.4 6.344 22.688 6.672 23.064C7 23.432 7.164 23.876 7.164 24.396C7.164 24.876 7.076 25.284 6.9 25.62C6.732 25.948 6.5 26.216 6.204 26.424C5.916 26.624 5.588 26.772 5.22 26.868C4.852 26.956 4.472 27 4.08 27H1.14V18.168H3.732ZM3.936 21.78C4.28 21.78 4.532 21.676 4.692 21.468C4.86 21.26 4.944 21.024 4.944 20.76C4.944 20.456 4.84 20.228 4.632 20.076C4.432 19.924 4.16 19.848 3.816 19.848H2.88V21.78H3.936ZM3.996 25.38C4.38 25.38 4.704 25.304 4.968 25.152C5.232 24.992 5.364 24.74 5.364 24.396C5.364 24.14 5.292 23.948 5.148 23.82C5.004 23.684 4.816 23.592 4.584 23.544C4.36 23.488 4.124 23.46 3.876 23.46H2.88V25.38H3.996ZM8.63353 21.756H10.3135V27H8.63353V21.756ZM8.59753 19.896C8.59753 19.648 8.69353 19.444 8.88553 19.284C9.08553 19.124 9.29753 19.044 9.52153 19.044C9.74553 19.044 9.94953 19.124 10.1335 19.284C10.3255 19.444 10.4215 19.648 10.4215 19.896C10.4215 20.144 10.3255 20.348 10.1335 20.508C9.94953 20.66 9.74553 20.736 9.52153 20.736C9.29753 20.736 9.08553 20.66 8.88553 20.508C8.69353 20.348 8.59753 20.144 8.59753 19.896ZM11.6357 24.312C11.6357 23.776 11.7597 23.296 12.0077 22.872C12.2637 22.448 12.6197 22.116 13.0757 21.876C13.5317 21.628 14.0557 21.504 14.6477 21.504C15.2477 21.504 15.7677 21.628 16.2077 21.876C16.6477 22.116 16.9837 22.448 17.2157 22.872C17.4557 23.296 17.5757 23.776 17.5757 24.312C17.5757 24.848 17.4557 25.332 17.2157 25.764C16.9837 26.188 16.6477 26.524 16.2077 26.772C15.7677 27.02 15.2397 27.144 14.6237 27.144C14.0477 27.144 13.5317 27.032 13.0757 26.808C12.6277 26.584 12.2757 26.26 12.0197 25.836C11.7637 25.412 11.6357 24.904 11.6357 24.312ZM13.3277 24.324C13.3277 24.596 13.3837 24.844 13.4957 25.068C13.6077 25.284 13.7597 25.456 13.9517 25.584C14.1437 25.712 14.3597 25.776 14.5997 25.776C14.9917 25.776 15.3037 25.64 15.5357 25.368C15.7677 25.088 15.8837 24.74 15.8837 24.324C15.8837 23.908 15.7677 23.564 15.5357 23.292C15.3037 23.012 14.9917 22.872 14.5997 22.872C14.3597 22.872 14.1437 22.936 13.9517 23.064C13.7597 23.192 13.6077 23.364 13.4957 23.58C13.3837 23.796 13.3277 24.044 13.3277 24.324ZM21.6112 29.64C21.1392 29.64 20.7392 29.584 20.4112 29.472C20.0912 29.36 19.8192 29.224 19.5952 29.064C19.3712 28.904 19.1712 28.752 18.9952 28.608L19.9792 27.456C20.1632 27.624 20.3752 27.784 20.6152 27.936C20.8632 28.096 21.1872 28.176 21.5872 28.176C21.9872 28.176 22.3352 28.072 22.6312 27.864C22.9352 27.664 23.0872 27.368 23.0872 26.976V25.824L23.1472 26.124C23.0192 26.396 22.7872 26.636 22.4512 26.844C22.1152 27.044 21.6752 27.144 21.1312 27.144C20.6592 27.144 20.2192 27.024 19.8112 26.784C19.4112 26.536 19.0912 26.204 18.8512 25.788C18.6112 25.364 18.4912 24.884 18.4912 24.348C18.4912 23.796 18.6192 23.308 18.8752 22.884C19.1312 22.452 19.4632 22.112 19.8712 21.864C20.2792 21.616 20.7112 21.492 21.1672 21.492C21.6232 21.492 22.0152 21.56 22.3432 21.696C22.6792 21.824 22.9312 21.984 23.0992 22.176L23.0392 22.332L23.2192 21.756H24.7672V27C24.7672 27.512 24.6232 27.964 24.3352 28.356C24.0472 28.756 23.6632 29.068 23.1832 29.292C22.7112 29.524 22.1872 29.64 21.6112 29.64ZM20.1832 24.3C20.1832 24.58 20.2472 24.832 20.3752 25.056C20.5032 25.28 20.6752 25.456 20.8912 25.584C21.1152 25.712 21.3632 25.776 21.6352 25.776C21.9792 25.776 22.2672 25.712 22.4992 25.584C22.7392 25.448 22.9352 25.248 23.0872 24.984V23.7C22.9752 23.444 22.7912 23.24 22.5352 23.088C22.2792 22.936 21.9792 22.86 21.6352 22.86C21.3632 22.86 21.1152 22.924 20.8912 23.052C20.6752 23.172 20.5032 23.34 20.3752 23.556C20.2472 23.772 20.1832 24.02 20.1832 24.3ZM29.0729 27.144C28.4329 27.144 27.8889 27.024 27.4409 26.784C27.0009 26.544 26.6649 26.212 26.4329 25.788C26.2009 25.364 26.0849 24.876 26.0849 24.324C26.0849 23.796 26.2209 23.32 26.4929 22.896C26.7649 22.472 27.1289 22.136 27.5849 21.888C28.0409 21.632 28.5489 21.504 29.1089 21.504C29.8609 21.504 30.4769 21.724 30.9569 22.164C31.4449 22.596 31.7609 23.224 31.9049 24.048L27.8249 25.344L27.4529 24.432L30.4049 23.436L30.0569 23.592C29.9929 23.384 29.8769 23.204 29.7089 23.052C29.5489 22.892 29.3049 22.812 28.9769 22.812C28.6009 22.812 28.3009 22.94 28.0769 23.196C27.8529 23.452 27.7409 23.796 27.7409 24.228C27.7409 24.716 27.8729 25.088 28.1369 25.344C28.4009 25.592 28.7249 25.716 29.1089 25.716C29.2929 25.716 29.4689 25.684 29.6369 25.62C29.8129 25.556 29.9849 25.472 30.1529 25.368L30.8969 26.616C30.6169 26.776 30.3129 26.904 29.9849 27C29.6649 27.096 29.3609 27.144 29.0729 27.144ZM32.7177 24.312C32.7177 23.776 32.8417 23.296 33.0897 22.872C33.3457 22.448 33.7017 22.116 34.1577 21.876C34.6137 21.628 35.1377 21.504 35.7297 21.504C36.3297 21.504 36.8497 21.628 37.2897 21.876C37.7297 22.116 38.0657 22.448 38.2977 22.872C38.5377 23.296 38.6577 23.776 38.6577 24.312C38.6577 24.848 38.5377 25.332 38.2977 25.764C38.0657 26.188 37.7297 26.524 37.2897 26.772C36.8497 27.02 36.3217 27.144 35.7057 27.144C35.1297 27.144 34.6137 27.032 34.1577 26.808C33.7097 26.584 33.3577 26.26 33.1017 25.836C32.8457 25.412 32.7177 24.904 32.7177 24.312ZM34.4097 24.324C34.4097 24.596 34.4657 24.844 34.5777 25.068C34.6897 25.284 34.8417 25.456 35.0337 25.584C35.2257 25.712 35.4417 25.776 35.6817 25.776C36.0737 25.776 36.3857 25.64 36.6177 25.368C36.8497 25.088 36.9657 24.74 36.9657 24.324C36.9657 23.908 36.8497 23.564 36.6177 23.292C36.3857 23.012 36.0737 22.872 35.6817 22.872C35.4417 22.872 35.2257 22.936 35.0337 23.064C34.8417 23.192 34.6897 23.364 34.5777 23.58C34.4657 23.796 34.4097 24.044 34.4097 24.324ZM41.6852 27.108C41.2532 27.108 40.8492 27.032 40.4732 26.88C40.1052 26.728 39.7932 26.516 39.5372 26.244L40.2332 25.32C40.4892 25.552 40.7252 25.72 40.9412 25.824C41.1652 25.92 41.3652 25.968 41.5412 25.968C41.7492 25.968 41.9212 25.936 42.0572 25.872C42.1932 25.808 42.2612 25.704 42.2612 25.56C42.2612 25.424 42.2052 25.316 42.0932 25.236C41.9892 25.156 41.8532 25.092 41.6852 25.044C41.5172 24.988 41.3372 24.932 41.1452 24.876C40.6652 24.724 40.3172 24.504 40.1012 24.216C39.8932 23.92 39.7892 23.6 39.7892 23.256C39.7892 22.992 39.8572 22.728 39.9932 22.464C40.1372 22.192 40.3612 21.968 40.6652 21.792C40.9772 21.608 41.3772 21.516 41.8652 21.516C42.3052 21.516 42.6772 21.56 42.9812 21.648C43.2852 21.736 43.5732 21.88 43.8452 22.08L43.2092 23.064C43.0572 22.944 42.8852 22.844 42.6932 22.764C42.5092 22.676 42.3372 22.628 42.1772 22.62C41.9612 22.612 41.7932 22.652 41.6732 22.74C41.5532 22.82 41.4932 22.916 41.4932 23.028C41.4852 23.18 41.5412 23.3 41.6612 23.388C41.7892 23.476 41.9492 23.544 42.1412 23.592C42.3332 23.64 42.5212 23.696 42.7052 23.76C43.0812 23.888 43.3812 24.072 43.6052 24.312C43.8292 24.544 43.9412 24.856 43.9412 25.248C43.9412 25.568 43.8572 25.872 43.6892 26.16C43.5292 26.44 43.2812 26.668 42.9452 26.844C42.6172 27.02 42.1972 27.108 41.6852 27.108ZM49.8004 26.532C49.5684 26.716 49.2764 26.864 48.9244 26.976C48.5804 27.088 48.2404 27.144 47.9044 27.144C47.3044 27.144 46.7804 27.036 46.3324 26.82C45.8924 26.596 45.5484 26.28 45.3004 25.872C45.0604 25.456 44.9404 24.956 44.9404 24.372C44.9404 23.788 45.0724 23.292 45.3364 22.884C45.6004 22.468 45.9444 22.152 46.3684 21.936C46.8004 21.72 47.2524 21.612 47.7244 21.612C48.1964 21.612 48.6044 21.676 48.9484 21.804C49.3004 21.932 49.6004 22.1 49.8484 22.308L49.0324 23.388C48.9204 23.3 48.7644 23.212 48.5644 23.124C48.3724 23.028 48.1444 22.98 47.8804 22.98C47.6484 22.98 47.4364 23.04 47.2444 23.16C47.0524 23.28 46.9004 23.444 46.7884 23.652C46.6764 23.86 46.6204 24.1 46.6204 24.372C46.6204 24.628 46.6804 24.864 46.8004 25.08C46.9204 25.296 47.0844 25.468 47.2924 25.596C47.5084 25.716 47.7604 25.776 48.0484 25.776C48.2324 25.776 48.4004 25.752 48.5524 25.704C48.7124 25.648 48.8484 25.572 48.9604 25.476L49.8004 26.532ZM51.0906 21.756H52.7706V27H51.0906V21.756ZM51.0546 19.896C51.0546 19.648 51.1506 19.444 51.3426 19.284C51.5426 19.124 51.7546 19.044 51.9786 19.044C52.2026 19.044 52.4066 19.124 52.5906 19.284C52.7826 19.444 52.8786 19.648 52.8786 19.896C52.8786 20.144 52.7826 20.348 52.5906 20.508C52.4066 20.66 52.2026 20.736 51.9786 20.736C51.7546 20.736 51.5426 20.66 51.3426 20.508C51.1506 20.348 51.0546 20.144 51.0546 19.896ZM57.0807 27.144C56.4407 27.144 55.8967 27.024 55.4487 26.784C55.0087 26.544 54.6727 26.212 54.4407 25.788C54.2087 25.364 54.0927 24.876 54.0927 24.324C54.0927 23.796 54.2287 23.32 54.5007 22.896C54.7727 22.472 55.1367 22.136 55.5927 21.888C56.0487 21.632 56.5567 21.504 57.1167 21.504C57.8687 21.504 58.4847 21.724 58.9647 22.164C59.4527 22.596 59.7687 23.224 59.9127 24.048L55.8327 25.344L55.4607 24.432L58.4127 23.436L58.0647 23.592C58.0007 23.384 57.8847 23.204 57.7167 23.052C57.5567 22.892 57.3127 22.812 56.9847 22.812C56.6087 22.812 56.3087 22.94 56.0847 23.196C55.8607 23.452 55.7487 23.796 55.7487 24.228C55.7487 24.716 55.8807 25.088 56.1447 25.344C56.4087 25.592 56.7327 25.716 57.1167 25.716C57.3007 25.716 57.4767 25.684 57.6447 25.62C57.8207 25.556 57.9927 25.472 58.1607 25.368L58.9047 26.616C58.6247 26.776 58.3207 26.904 57.9927 27C57.6727 27.096 57.3687 27.144 57.0807 27.144ZM62.6575 21.756L62.7895 22.692L62.7655 22.608C62.9495 22.28 63.2095 22.016 63.5455 21.816C63.8815 21.608 64.2935 21.504 64.7815 21.504C65.2775 21.504 65.6895 21.652 66.0175 21.948C66.3535 22.236 66.5255 22.612 66.5335 23.076V27H64.8535V23.7C64.8455 23.468 64.7815 23.284 64.6615 23.148C64.5495 23.004 64.3575 22.932 64.0855 22.932C63.6935 22.932 63.3815 23.116 63.1495 23.484C62.9255 23.844 62.8135 24.304 62.8135 24.864V27H61.1335V21.756H62.6575ZM72.7105 26.532C72.4785 26.716 72.1865 26.864 71.8345 26.976C71.4905 27.088 71.1505 27.144 70.8145 27.144C70.2145 27.144 69.6905 27.036 69.2425 26.82C68.8025 26.596 68.4585 26.28 68.2105 25.872C67.9705 25.456 67.8505 24.956 67.8505 24.372C67.8505 23.788 67.9825 23.292 68.2465 22.884C68.5105 22.468 68.8545 22.152 69.2785 21.936C69.7105 21.72 70.1625 21.612 70.6345 21.612C71.1065 21.612 71.5145 21.676 71.8585 21.804C72.2105 21.932 72.5105 22.1 72.7585 22.308L71.9425 23.388C71.8305 23.3 71.6745 23.212 71.4745 23.124C71.2825 23.028 71.0545 22.98 70.7905 22.98C70.5585 22.98 70.3465 23.04 70.1545 23.16C69.9625 23.28 69.8105 23.444 69.6985 23.652C69.5865 23.86 69.5305 24.1 69.5305 24.372C69.5305 24.628 69.5905 24.864 69.7105 25.08C69.8305 25.296 69.9945 25.468 70.2025 25.596C70.4185 25.716 70.6705 25.776 70.9585 25.776C71.1425 25.776 71.3105 25.752 71.4625 25.704C71.6225 25.648 71.7585 25.572 71.8705 25.476L72.7105 26.532ZM76.5807 27.144C75.9407 27.144 75.3967 27.024 74.9487 26.784C74.5087 26.544 74.1727 26.212 73.9407 25.788C73.7087 25.364 73.5927 24.876 73.5927 24.324C73.5927 23.796 73.7287 23.32 74.0007 22.896C74.2727 22.472 74.6367 22.136 75.0927 21.888C75.5487 21.632 76.0567 21.504 76.6167 21.504C77.3687 21.504 77.9847 21.724 78.4647 22.164C78.9527 22.596 79.2687 23.224 79.4127 24.048L75.3327 25.344L74.9607 24.432L77.9127 23.436L77.5647 23.592C77.5007 23.384 77.3847 23.204 77.2167 23.052C77.0567 22.892 76.8127 22.812 76.4847 22.812C76.1087 22.812 75.8087 22.94 75.5847 23.196C75.3607 23.452 75.2487 23.796 75.2487 24.228C75.2487 24.716 75.3807 25.088 75.6447 25.344C75.9087 25.592 76.2327 25.716 76.6167 25.716C76.8007 25.716 76.9767 25.684 77.1447 25.62C77.3207 25.556 77.4927 25.472 77.6607 25.368L78.4047 26.616C78.1247 26.776 77.8207 26.904 77.4927 27C77.1727 27.096 76.8687 27.144 76.5807 27.144ZM82.3375 27.108C81.9055 27.108 81.5015 27.032 81.1255 26.88C80.7575 26.728 80.4455 26.516 80.1895 26.244L80.8855 25.32C81.1415 25.552 81.3775 25.72 81.5935 25.824C81.8175 25.92 82.0175 25.968 82.1935 25.968C82.4015 25.968 82.5735 25.936 82.7095 25.872C82.8455 25.808 82.9135 25.704 82.9135 25.56C82.9135 25.424 82.8575 25.316 82.7455 25.236C82.6415 25.156 82.5055 25.092 82.3375 25.044C82.1695 24.988 81.9895 24.932 81.7975 24.876C81.3175 24.724 80.9695 24.504 80.7535 24.216C80.5455 23.92 80.4415 23.6 80.4415 23.256C80.4415 22.992 80.5095 22.728 80.6455 22.464C80.7895 22.192 81.0135 21.968 81.3175 21.792C81.6295 21.608 82.0295 21.516 82.5175 21.516C82.9575 21.516 83.3295 21.56 83.6335 21.648C83.9375 21.736 84.2255 21.88 84.4975 22.08L83.8615 23.064C83.7095 22.944 83.5375 22.844 83.3455 22.764C83.1615 22.676 82.9895 22.628 82.8295 22.62C82.6135 22.612 82.4455 22.652 82.3255 22.74C82.2055 22.82 82.1455 22.916 82.1455 23.028C82.1375 23.18 82.1935 23.3 82.3135 23.388C82.4415 23.476 82.6015 23.544 82.7935 23.592C82.9855 23.64 83.1735 23.696 83.3575 23.76C83.7335 23.888 84.0335 24.072 84.2575 24.312C84.4815 24.544 84.5935 24.856 84.5935 25.248C84.5935 25.568 84.5095 25.872 84.3415 26.16C84.1815 26.44 83.9335 26.668 83.5975 26.844C83.2695 27.02 82.8495 27.108 82.3375 27.108Z" fill="white"/>
</svg>
