<svg width="1439" height="168" viewBox="0 0 1439 168" fill="none" xmlns="http://www.w3.org/2000/svg">
<path d="M20.14 60.4199L0 40.2799V167.162L1436.99 139.973L1439 28.1959L1423.9 58.4059L1413.83 46.3219L1407.78 55.3849L1394.69 20.14L1380.59 62.4339L1367.5 69.4829L1362.47 65.4549L1338.3 2.014L1321.18 40.2799L1309.1 44.3079L1303.06 37.2589L1292.99 40.2799L1285.94 22.154L1273.85 55.3849L1262.78 62.4339L1253.71 53.3709L1247.67 58.4059L1243.64 55.3849L1224.51 0L1207.39 46.3219L1192.29 55.3849L1185.24 54.3779L1172.15 20.14L1159.05 54.3779L1144.96 58.4059L1132.87 51.3569L1116.76 2.014L1104.68 34.2379L1094.61 28.1959L1090.58 37.2589L1085.54 34.2379L1074.47 2.014L1052.31 55.3849H1038.21H1029.15L1016.06 22.154L1005.99 55.3849H999.949L993.907 53.3709L983.837 49.3429L965.711 0L943.557 60.4199L931.473 54.3779L926.438 60.4199L916.368 55.3849L903.277 20.14L893.207 44.3079L886.158 40.2799L878.102 42.2939L865.011 37.2589L852.927 2.014L829.766 62.4339L820.703 66.4619L803.584 46.3219L794.521 20.14L783.444 54.3779L769.346 55.3849L758.269 42.2939L752.227 44.3079L746.185 46.3219L736.115 22.154L716.983 70.4899L692.815 2.014L679.724 40.2799L672.675 60.4199H667.64L658.577 51.3569L653.542 54.3779L640.451 20.14L634.409 37.2589L625.346 58.4059L614.269 68.4759L606.213 64.4479L584.059 2.014L570.968 37.2589L557.877 44.3079L549.821 37.2589L540.758 40.2799L531.695 20.14L520.618 54.3779L509.541 62.4339L501.485 54.3779L489.401 60.4199L471.275 0L454.156 46.3219L439.051 58.4059L430.995 54.3779L418.911 20.14L404.813 54.3779L393.736 58.4059L387.694 54.3779L375.61 37.2589L363.526 2.014L349.428 32.2239L340.365 28.1959L331.302 37.2589L318.211 2.014L305.12 37.2589L296.057 51.3569L276.924 56.3919L264.84 22.154L253.763 56.3919H243.693L238.659 49.3429H228.589L211.47 0L188.309 60.4199L176.225 42.2939L173.204 62.4339L161.12 56.3919L150.043 20.14L139.973 44.3079L131.917 40.2799L123.861 44.3079L108.756 37.2589L97.6788 0L78.5458 62.4339L66.4619 68.4759L51.3569 48.3359L41.2869 22.154L20.14 60.4199Z" fill="#235C02"/>
<path fill-rule="evenodd" clip-rule="evenodd" d="M963.697 26.4318V11.496L950.606 4.02808L937.515 11.496V26.4318L948.402 32.6393V41.9632V56.392H952.814V46.322V32.601L963.697 26.4318ZM500.478 28.4458V13.51L487.387 6.04207L474.296 13.51V28.4458L485.183 34.6533V43.9772V58.406H489.595V48.336V34.6149L500.478 28.4458ZM208.449 15.524V30.4598L197.565 36.6289V50.35V60.42H193.154V45.9912V36.6673L182.267 30.4598V15.524L195.358 8.05607L208.449 15.524ZM135.945 17.538V32.4738L125.061 38.6429V52.364H110.173L113.483 48.0052H120.65V38.6813L109.763 32.4738V17.538L122.854 10.0701L135.945 17.538ZM33.6841 48.6979V31.002L18.3525 22.154L3.021 31.002V48.6979L15.7713 56.0525V67.0994H7.37793L3.50172 72.2636H20.9381V56.007L33.6841 48.6979ZM82.02 58.7679V41.072L66.6884 32.224L51.3569 41.072V58.7679L64.1072 66.1225V77.1694H55.7138L51.8376 82.3336H69.274V66.077L82.02 58.7679ZM188.309 50.5998V35.664L175.218 28.196L162.127 35.664V50.5998L173.014 56.8073V66.1312H165.847L162.537 70.4899H177.425V56.7689L188.309 50.5998ZM252.756 42.5438V27.608L239.665 20.14L226.575 27.608V42.5438L237.461 48.7513V58.0752V72.5039H241.873V62.434V48.7129L252.756 42.5438ZM303.106 35.664V50.5998L292.223 56.7689V70.4899V80.5599H287.811V66.1312V56.8073L276.924 50.5998V35.664L290.015 28.196L303.106 35.664ZM405.82 50.5998V35.664L392.729 28.196L379.638 35.664V50.5998L390.525 56.8073V66.1312V80.5599H394.937V70.4899V56.7689L405.82 50.5998ZM452.142 29.622V44.5578L441.259 50.7269V64.448V74.5179H436.847V60.0892V50.7653L425.96 44.5578V29.622L439.051 22.154L452.142 29.622ZM518.604 35.664V50.5998L507.721 56.7689V70.4899V80.5599H503.309V66.1312V56.8073L492.422 50.5998V35.664L505.513 28.196L518.604 35.664ZM570.968 32.4738V17.538L557.877 10.0701L544.786 17.538V32.4738L555.673 38.6813V48.0052V62.434H560.085V52.364V38.6429L570.968 32.4738ZM631.388 39.6919V54.6278L620.504 60.7969V74.5179V84.5879H616.093V70.1592V60.8353L605.206 54.6278V39.6919L618.297 32.224L631.388 39.6919ZM677.71 48.5858V33.65L664.619 26.182L651.528 33.65V48.5858L662.415 54.7933V64.1172V78.5459H666.826V68.4759V54.7549L677.71 48.5858ZM738.129 39.6919V54.6278L727.246 60.7969V74.5179V84.5879H722.834V70.1592V60.8353L711.948 54.6278V39.6919L725.039 32.224L738.129 39.6919ZM786.465 46.5718V31.636L773.374 24.168L760.283 31.636V46.5718L771.17 52.7793V62.1032V76.5319H775.582V66.4619V52.7409L786.465 46.5718ZM834.801 41.7059V56.6418L823.918 62.8109V76.5319V86.6019H819.506V72.1732V62.8493L808.619 56.6418V41.7059L821.71 34.238L834.801 41.7059ZM893.207 32.4738V17.538L880.116 10.0701L867.025 17.538V32.4738L877.912 38.6813V48.0052V62.434H882.324V52.364V38.6429L893.207 32.4738ZM943.557 35.664V50.5998L932.674 56.7689V70.4899V80.5599H928.262V66.1312V56.8073L917.375 50.5998V35.664L930.466 28.196L943.557 35.664ZM1008 27.608V42.5438L997.122 48.7129V62.434V72.5039H992.71V58.0752V48.7513L981.823 42.5438V27.608L994.914 20.14L1008 27.608ZM1056.34 50.5998V35.664L1043.25 28.196L1030.16 35.664V50.5998L1041.05 56.8073V66.1312V80.5599H1045.46V70.4899V56.7689L1056.34 50.5998ZM1159.05 37.678V52.6138L1148.17 58.7829V72.5039V82.5739H1143.76V68.1452V58.8213L1132.87 52.6138V37.678L1145.96 30.21L1159.05 37.678ZM1207.39 44.5578V29.622L1194.3 22.154L1181.21 29.622V44.5578L1192.1 50.7653V60.0892V74.5179H1196.51V64.448V50.7269L1207.39 44.5578ZM1253.71 13.51V28.4458L1242.83 34.6149V48.336V58.406H1238.42V43.9772V34.6533L1227.53 28.4458V13.51L1240.62 6.04207L1253.71 13.51ZM1273.85 48.5858V33.65L1260.76 26.182L1247.67 33.65V48.5858L1258.56 54.7933V64.1172V78.5459H1262.97V68.4759V54.7549L1273.85 48.5858ZM1324.2 17.538V32.4738L1313.32 38.6429V52.364V62.434H1308.91V48.0052V38.6813L1298.02 32.4738V17.538L1311.11 10.0701L1324.2 17.538ZM1384.62 56.6418V41.7059L1371.53 34.238L1358.44 41.7059V56.6418L1369.33 62.8493V72.1732V86.6019H1373.74V76.5319V62.8109L1384.62 56.6418ZM1430.94 31.636V46.5718L1420.06 52.7409V66.4619V76.5319H1415.65V62.1032V52.7793L1404.76 46.5718V31.636L1417.85 24.168L1430.94 31.636Z" fill="#235C02"/>
</svg>
