<svg width="1440" height="71" viewBox="0 0 1440 71" fill="none" xmlns="http://www.w3.org/2000/svg">
<path d="M-0.737686 27.1001L1.55281 28.4221V34.6905L5.7991 32.2392V23.2896L-1.94747 18.8159L-9.69184 23.2896V32.2392L-3.34758 35.903V55.877H-10.8491V58.4882H6.90606V55.877H-0.737686V27.1001Z" fill="#40811B"/>
<path d="M32.6861 21.6458L34.9766 22.9677V29.2362L39.2229 26.7848V17.8353L31.4764 13.3616L23.732 17.8353V26.7848L30.0762 30.4487V50.4227H22.5747V53.0338H40.3299V50.4227H32.6861V21.6458Z" fill="#40811B"/>
<path d="M78.7735 27.1001L81.064 28.4221V34.6905L85.3103 32.2392V23.2896L77.5638 18.8159L69.8194 23.2896V32.2392L76.1636 35.903V55.877H68.6621V58.4882H86.4173V55.877H78.7735V27.1001Z" fill="#40811B"/>
<path d="M112.157 21.6375L114.447 22.9594V29.2279L118.694 26.7765V17.827L110.947 13.3533L103.203 17.827V26.7765L109.547 30.4404V50.4144H102.045V53.0255H119.801V50.4144H112.157V21.6375Z" fill="#40811B"/>
<path d="M149.181 25.886L151.472 27.208V33.4764L155.718 31.0251V22.0755L147.971 17.6018L140.227 22.0755V31.0251L146.571 34.6889V54.6629H139.07V57.2741H156.825V54.6629H149.181V25.886Z" fill="#40811B"/>
<path d="M191.669 27.1001L193.959 28.4221V34.6905L198.205 32.2392V23.2896L190.459 18.8159L182.714 23.2896V32.2392L189.059 35.903V55.877H181.557V58.4882H199.312V55.877H191.669V27.1001Z" fill="#40811B"/>
<path d="M227.479 23.4583L229.769 24.7802V31.0487L234.015 28.5973V19.6478L226.269 15.1741L218.524 19.6478V28.5973L224.869 32.2612V52.2352H217.367V54.8463H235.122V52.2352H227.479V23.4583Z" fill="#40811B"/>
<path d="M254.792 30.1348L257.082 31.4568V37.7252L261.328 35.2738V26.3243L253.582 21.8506L245.837 26.3243V35.2738L252.182 38.9377V58.9117H244.68V61.5228H262.435V58.9117H254.792V30.1348Z" fill="#40811B"/>
<path d="M282.105 19.8164L284.396 21.1384V27.4068L288.642 24.9555V16.0059L280.895 11.5322L273.151 16.0059V24.9555L279.495 28.6194V48.5934H271.994V51.2045H289.749V48.5934H282.105V19.8164Z" fill="#40811B"/>
<path d="M312.453 19.8164L314.744 21.1384V27.4068L318.99 24.9555V16.0059L311.243 11.5322L303.499 16.0059V24.9555L309.843 28.6194V48.5934H302.342V51.2045H320.097V48.5934H312.453V19.8164Z" fill="#40811B"/>
<path d="M342.801 23.4583L345.091 24.7802V31.0487L349.338 28.5973V19.6478L341.591 15.1741L333.847 19.6478V28.5973L340.191 32.2612V52.2352H332.689V54.8463H350.445V52.2352H342.801V23.4583Z" fill="#40811B"/>
<path d="M385.288 27.7068L387.578 29.0288V35.2972L391.825 32.8459V23.8963L384.078 19.4226L376.334 23.8963V32.8459L382.678 36.5097V56.4837H375.177V59.0949H392.932V56.4837H385.288V27.7068Z" fill="#40811B"/>
<path d="M422.92 23.4583L425.21 24.7802V31.0487L429.456 28.5973V19.6478L421.71 15.1741L413.965 19.6478V28.5973L420.31 32.2612V52.2352H412.808V54.8463H430.563V52.2352H422.92V23.4583Z" fill="#40811B"/>
<path d="M459.337 22.2444L461.628 23.5664V29.8348L465.874 27.3835V18.4339L458.127 13.9602L450.383 18.4339V27.3835L456.727 31.0473V51.0213H449.226V53.6325H466.981V51.0213H459.337V22.2444Z" fill="#40811B"/>
<path d="M492.112 17.9956L494.403 19.3176V25.586L498.649 23.1347V14.1851L490.903 9.71143L483.158 14.1851V23.1347L489.503 26.7986V46.7726H482.001V49.3837H499.756V46.7726H492.112V17.9956Z" fill="#40811B"/>
<path d="M523.675 25.886L525.965 27.208V33.4764L530.211 31.0251V22.0755L522.465 17.6018L514.721 22.0755V31.0251L521.065 34.6889V54.6629H513.563V57.2741H531.318V54.6629H523.675V25.886Z" fill="#40811B"/>
<path d="M558.271 25.886L560.562 27.208V33.4764L564.808 31.0251V22.0755L557.061 17.6018L549.317 22.0755V31.0251L555.661 34.6889V54.6629H548.16V57.2741H565.915V54.6629H558.271V25.886Z" fill="#40811B"/>
<path d="M601.972 25.886L604.262 27.208V33.4764L608.509 31.0251V22.0755L600.762 17.6018L593.018 22.0755V31.0251L599.362 34.6889V54.6629H591.86V57.2741H609.616V54.6629H601.972V25.886Z" fill="#40811B"/>
<path d="M641.424 22.2444L643.714 23.5664V29.8348L647.961 27.3835V18.4339L640.214 13.9602L632.47 18.4339V27.3835L638.814 31.0473V51.0213H631.312V53.6325H649.068V51.0213H641.424V22.2444Z" fill="#40811B"/>
<path d="M680.877 24.6724L683.167 25.9944V32.2628L687.413 29.8114V20.8619L679.667 16.3882L671.922 20.8619V29.8114L678.267 33.4753V53.4493H670.765V56.0604H688.52V53.4493H680.877V24.6724Z" fill="#40811B"/>
<path d="M700.906 24.6724L703.196 25.9944V32.2628L707.443 29.8114V20.8619L699.696 16.3882L691.952 20.8619V29.8114L698.296 33.4753V53.4493H690.794V56.0604H708.55V53.4493H700.906V24.6724Z" fill="#40811B"/>
<path d="M722.15 28.3137L724.44 29.6357V35.9041L728.687 33.4528V24.5032L720.94 20.0295L713.196 24.5032V33.4528L719.54 37.1167V57.0907H712.038V59.7018H729.794V57.0907H722.15V28.3137Z" fill="#40811B"/>
<path d="M-257.274 50.074L-277 30.9549V70.7106H733.889V20.9401L719.322 56.1436L703.844 16.6913L693.526 43.701L685.332 58.5715L664.695 2.42783L655.591 27.9201L643.452 48.8601L627.671 16.6913L615.532 47.0393L602.179 52.8054L584.274 0.910437L572.134 33.0792L562.423 51.5914L547.249 16.6913L536.931 47.0393L528.433 52.8054L509.011 2.12435L494.14 44.0045L478.056 3.64175L464.399 44.0045L449.832 47.0393L439.514 16.6913L430.106 42.1836L421.002 49.7706L402.49 2.12435L388.833 47.0393L374.266 56.4471L359.092 16.6913L346.346 56.4471L321.764 2.12435L303.859 59.7854L282.008 16.6913L265.317 54.9297L251.661 48.2532L240.735 16.6913L227.382 53.4123L209.78 2.12435L191.572 59.7854L173.059 16.6913L165.169 41.8801L153.333 54.9297L133.911 3.33827L121.771 33.9897L110.239 48.2532L97.4931 16.6913L89.2992 40.9697L73.5183 52.5019L53.1852 0L30.4243 52.5019L17.0712 15.7809L-2.35147 52.5019L-21.7741 1.21392L-36.0376 47.0393L-52.122 2.73131L-77.9177 52.5019L-91.5743 15.7809L-109.176 52.5019L-127.081 1.21392L-155.305 57.0541L-171.693 15.7809L-189.598 50.074L-208.11 1.21392L-235.423 50.074L-247.563 15.7809L-257.274 50.074Z" fill="#235C02"/>
<path d="M721.989 27.7068L724.279 29.0288V35.2972L728.526 32.8459V23.8963L720.779 19.4226L713.035 23.8963V32.8459L719.379 36.5097V56.4837H711.877V59.0949H729.633V56.4837H721.989V27.7068Z" fill="#40811B"/>
<path d="M753.55 22.2444L755.841 23.5664V29.8348L760.087 27.3835V18.4339L752.341 13.9602L744.596 18.4339V27.3835L750.941 31.0473V51.0213H743.439V53.6325H761.194V51.0213H753.55V22.2444Z" fill="#40811B"/>
<path d="M800.61 27.9746L802.9 29.2966V35.565L807.147 33.1137V24.1641L799.4 19.6904L791.656 24.1641V33.1137L798 36.7776V56.7516H790.499V59.3627H808.254V56.7516H800.61V27.9746Z" fill="#40811B"/>
<path d="M825.779 25.886L828.069 27.208V33.4764L832.315 31.0251V22.0755L824.569 17.6018L816.825 22.0755V31.0251L823.169 34.6889V54.6629H815.667V57.2741H833.422V54.6629H825.779V25.886Z" fill="#40811B"/>
<path d="M872.514 25.886L874.805 27.208V33.4764L879.051 31.0251V22.0755L871.304 17.6018L863.56 22.0755V31.0251L869.904 34.6889V54.6629H862.403V57.2741H880.158V54.6629H872.514V25.886Z" fill="#40811B"/>
<path d="M908.325 31.9556L910.616 33.2776V39.546L914.862 37.0946V28.1451L907.115 23.6714L899.371 28.1451V37.0946L905.715 40.7585V60.7325H898.214V63.3436H915.969V60.7325H908.325V31.9556Z" fill="#40811B"/>
<path d="M941.707 16.1748L943.998 17.4968V23.7652L948.244 21.3139V12.3643L940.498 7.89062L932.753 12.3643V21.3139L939.097 24.9778V44.9518H931.596V47.5629H949.351V44.9518H941.707V16.1748Z" fill="#40811B"/>
<path d="M982.374 27.1001L984.664 28.4221V34.6905L988.91 32.2392V23.2896L981.164 18.8159L973.419 23.2896V32.2392L979.764 35.903V55.877H972.262V58.4882H990.017V55.877H982.374V27.1001Z" fill="#40811B"/>
<path d="M1015.8 21.6458L1018.09 22.9677V29.2362L1022.33 26.7848V17.8353L1014.59 13.3616L1006.84 17.8353V26.7848L1013.19 30.4487V50.4227H1005.69V53.0338H1023.44V50.4227H1015.8V21.6458Z" fill="#40811B"/>
<path d="M1061.89 27.1001L1064.18 28.4221V34.6905L1068.42 32.2392V23.2896L1060.68 18.8159L1052.93 23.2896V32.2392L1059.28 35.903V55.877H1051.77V58.4882H1069.53V55.877H1061.89V27.1001Z" fill="#40811B"/>
<path d="M1095.27 21.6375L1097.56 22.9594V29.2279L1101.8 26.7765V17.827L1094.06 13.3533L1086.31 17.827V26.7765L1092.66 30.4404V50.4144H1085.16V53.0255H1102.91V50.4144H1095.27V21.6375Z" fill="#40811B"/>
<path d="M1132.29 25.886L1134.58 27.208V33.4764L1138.83 31.0251V22.0755L1131.08 17.6018L1123.34 22.0755V31.0251L1129.68 34.6889V54.6629H1122.18V57.2741H1139.94V54.6629H1132.29V25.886Z" fill="#40811B"/>
<path d="M1174.78 27.1001L1177.07 28.4221V34.6905L1181.32 32.2392V23.2896L1173.57 18.8159L1165.83 23.2896V32.2392L1172.17 35.903V55.877H1164.67V58.4882H1182.42V55.877H1174.78V27.1001Z" fill="#40811B"/>
<path d="M1210.59 23.4583L1212.88 24.7802V31.0487L1217.13 28.5973V19.6478L1209.38 15.1741L1201.64 19.6478V28.5973L1207.98 32.2612V52.2352H1200.48V54.8463H1218.23V52.2352H1210.59V23.4583Z" fill="#40811B"/>
<path d="M1237.9 30.1348L1240.19 31.4568V37.7252L1244.44 35.2738V26.3243L1236.69 21.8506L1228.95 26.3243V35.2738L1235.29 38.9377V58.9117H1227.79V61.5228H1245.55V58.9117H1237.9V30.1348Z" fill="#40811B"/>
<path d="M1265.22 19.8164L1267.51 21.1384V27.4068L1271.75 24.9555V16.0059L1264.01 11.5322L1256.26 16.0059V24.9555L1262.61 28.6194V48.5934H1255.1V51.2045H1272.86V48.5934H1265.22V19.8164Z" fill="#40811B"/>
<path d="M1295.56 19.8164L1297.85 21.1384V27.4068L1302.1 24.9555V16.0059L1294.35 11.5322L1286.61 16.0059V24.9555L1292.95 28.6194V48.5934H1285.45V51.2045H1303.21V48.5934H1295.56V19.8164Z" fill="#40811B"/>
<path d="M1325.91 23.4583L1328.2 24.7802V31.0487L1332.45 28.5973V19.6478L1324.7 15.1741L1316.96 19.6478V28.5973L1323.3 32.2612V52.2352H1315.8V54.8463H1333.56V52.2352H1325.91V23.4583Z" fill="#40811B"/>
<path d="M1368.4 27.7068L1370.69 29.0288V35.2972L1374.94 32.8459V23.8963L1367.19 19.4226L1359.45 23.8963V32.8459L1365.79 36.5097V56.4837H1358.29V59.0949H1376.04V56.4837H1368.4V27.7068Z" fill="#40811B"/>
<path d="M1406.03 23.4583L1408.32 24.7802V31.0487L1412.57 28.5973V19.6478L1404.82 15.1741L1397.08 19.6478V28.5973L1403.42 32.2612V52.2352H1395.92V54.8463H1413.67V52.2352H1406.03V23.4583Z" fill="#40811B"/>
<path d="M1442.45 22.2444L1444.74 23.5664V29.8348L1448.98 27.3835V18.4339L1441.24 13.9602L1433.49 18.4339V27.3835L1439.84 31.0473V51.0213H1432.34V53.6325H1450.09V51.0213H1442.45V22.2444Z" fill="#40811B"/>
<path d="M725.837 50.074L706.111 30.9549V70.7106H1717V20.9401L1702.43 56.1436L1686.96 16.6913L1676.64 43.701L1668.44 58.5715L1647.81 2.42783L1638.7 27.9201L1626.56 48.8601L1610.78 16.6913L1598.64 47.0393L1585.29 52.8054L1567.38 0.910437L1555.25 33.0792L1545.53 51.5914L1530.36 16.6913L1520.04 47.0393L1511.54 52.8054L1492.12 2.12435L1477.25 44.0045L1461.17 3.64175L1447.51 44.0045L1432.94 47.0393L1422.63 16.6913L1413.22 42.1836L1404.11 49.7706L1385.6 2.12435L1371.94 47.0393L1357.38 56.4471L1342.2 16.6913L1329.46 56.4471L1304.88 2.12435L1286.97 59.7854L1265.12 16.6913L1248.43 54.9297L1234.77 48.2532L1223.85 16.6913L1210.49 53.4123L1192.89 2.12435L1174.68 59.7854L1156.17 16.6913L1148.28 41.8801L1136.44 54.9297L1117.02 3.33827L1104.88 33.9897L1093.35 48.2532L1080.6 16.6913L1072.41 40.9697L1056.63 52.5019L1036.3 0L1013.54 52.5019L1000.18 15.7809L980.76 52.5019L961.337 1.21392L947.074 47.0393L930.989 2.73131L905.194 52.5019L891.537 15.7809L873.935 52.5019L856.03 1.21392L827.806 57.0541L811.419 15.7809L793.513 50.074L775.001 1.21392L747.688 50.074L735.549 15.7809L725.837 50.074Z" fill="#235C02"/>
</svg>
