<svg width="3386" height="3232" viewBox="0 0 3386 3232" fill="none" xmlns="http://www.w3.org/2000/svg">
<path fill-rule="evenodd" clip-rule="evenodd" d="M1970.62 782.591L1783.97 674.893V3019.28H2406.85V3232H960.004V3019.28H1571.29V1392.05L1054.31 1093.56V364.46L1685.39 0L2316.64 364.46V1093.56L1970.62 1293.26V782.591ZM1263.6 2261.13V1532.09L631.798 1167.57L0 1532.09V2261.13L525.428 2564.13V3019.24H179.545L19.8104 3232H738.347V1892.51L924.853 2000.4V2456.59L1263.6 2261.13ZM3353 2261.13V1532.09L2721.11 1167.57L2089.58 1532.09V2261.13L2614.96 2564.13V3232H3386L3226.51 3019.24H2827.79L2827.26 1864.15L3014.04 1972.05V2456.59L3353 2261.13Z" fill="#D9D9D9"/>
</svg>
