<svg width="700" height="700" viewBox="0 0 700 700" fill="none" xmlns="http://www.w3.org/2000/svg">
<path fill-rule="evenodd" clip-rule="evenodd" d="M407.394 169.497L368.807 146.171V653.928H497.577V700H198.465V653.928H324.839V301.495L217.961 236.848V78.9363L348.426 0L478.928 78.9363V236.848L407.394 280.1V169.497ZM261.228 489.725V331.826L130.614 252.876L0 331.826V489.725L108.624 555.349V653.92H37.118L4.09547 700H152.641V409.887L191.198 433.255V532.058L261.228 489.725ZM693.177 489.725V331.826L562.545 252.876L431.987 331.826V489.725L540.601 555.349V700H700L667.029 653.92H584.6L584.489 403.746L623.103 427.114V532.058L693.177 489.725Z" fill="#C4C4C4"/>
</svg>
